<?xml version="1.0" encoding="utf-8"?>
<!-- Generator: Adobe Illustrator 24.0.1, SVG Export Plug-In . SVG Version: 6.00 Build 0)  -->
<svg version="1.1" id="Layer_1" xmlns="http://www.w3.org/2000/svg" xmlns:xlink="http://www.w3.org/1999/xlink" x="0px" y="0px"
	 viewBox="0 0 96 96" style="enable-background:new 0 0 96 96;" xml:space="preserve">
<style type="text/css">
	.st0{fill:#E41319;}
</style>
<g>
	<path class="st0" d="M19.5,45.4c-0.6-1.3-0.1-2.8,1.2-3.5c0.9-0.4,2-0.3,2.8,0.4c0,0,8,7.8,12.3,11.5c2.5,2.2,3.7,3.3,6.6,1.1
		c16.7-13,46.3-36.4,46.8-36.8c2.2-1.6,5,0.6,2.2,3.3c-4.6,4.4-42,42.3-48.9,47c-2.3,1.6-7.5,1.8-10.4-3.7
		C31.3,63,19.5,45.4,19.5,45.4z"/>
	<path class="st0" d="M48.1,96c-1.2,0-2.4,0-3.7-0.1c-26.4-2-46.3-25-44.3-51.4C1.1,31.7,7,19.9,16.7,11.6
		c18-15.5,44.7-15.5,62.7,0.1c0.8,0.7,0.9,1.9,0.2,2.7c-0.7,0.8-1.9,0.9-2.7,0.2C58.4-1.3,30.5,0.7,14.6,19.2
		c-14.3,16.5-14.3,41-0.1,57.6c15.9,18.5,43.8,20.5,62.3,4.6c13.1-11.3,18.4-29.2,13.6-45.7c-0.3-1,0.3-2.1,1.3-2.4
		c1-0.3,2.1,0.3,2.4,1.3c7.4,25.4-7.2,52.1-32.6,59.5C57.1,95.3,52.6,96,48.1,96z"/>
</g>
</svg>
